{
    "asset" : {
        "generator" : "Khronos glTF Blender I/O v1.5.17",
        "version" : "2.0"
    },
    "scene" : 0,
    "scenes" : [
        {
            "name" : "Scene",
            "nodes" : [
                5
            ]
        }
    ],
    "nodes" : [
        {
            "mesh" : 0,
            "name" : "Brain_Part_02.002_Mesh.007",
            "rotation" : [
                0.7071068286895752,
                0,
                0,
                0.7071067094802856
            ]
        },
        {
            "mesh" : 1,
            "name" : "Brain_Part_04.002_Mesh.009",
            "rotation" : [
                0.7071068286895752,
                0,
                0,
                0.7071068286895752
            ]
        },
        {
            "mesh" : 2,
            "name" : "Brain_Part_05.002_Mesh.010",
            "rotation" : [
                0.7071068286895752,
                0,
                0,
                0.7071067094802856
            ]
        },
        {
            "mesh" : 3,
            "name" : "Brain_Part_06.002_Mesh.001",
            "rotation" : [
                0.7071068286895752,
                0,
                0,
                0.7071067094802856
            ]
        },
        {
            "mesh" : 4,
            "name" : "Brain_Part_06.002_Mesh.011",
            "rotation" : [
                0.7071068286895752,
                0,
                0,
                0.7071067094802856
            ]
        },
        {
            "children" : [
                0,
                1,
                2,
                3,
                4
            ],
            "name" : "Empty"
        }
    ],
    "materials" : [
        {
            "doubleSided" : true,
            "emissiveFactor" : [
                0.015851607346438867,
                1,
                1
            ],
            "name" : "BRAIN_TEXTURE_blinn2.001",
            "pbrMetallicRoughness" : {
                "roughnessFactor" : 0.5474786162376404
            }
        },
        {
            "doubleSided" : true,
            "emissiveFactor" : [
                0.006878219079226255,
                0.06031293794512749,
                0.12679263949394226
            ],
            "name" : "BRAIN_TEXTURE_blinn2.002",
            "pbrMetallicRoughness" : {
                "baseColorFactor" : [
                    0.019382327795028687,
                    0.23455063998699188,
                    0.520995557308197,
                    1
                ],
                "roughnessFactor" : 0.2500000298023224
            }
        }
    ],
    "meshes" : [
        {
            "name" : "Brain_Part_02.002_Mesh.007",
            "primitives" : [
                {
                    "attributes" : {
                        "POSITION" : 0,
                        "NORMAL" : 1,
                        "TEXCOORD_0" : 2
                    },
                    "indices" : 3,
                    "material" : 0
                }
            ]
        },
        {
            "name" : "Brain_Part_04.002_Mesh.009",
            "primitives" : [
                {
                    "attributes" : {
                        "POSITION" : 4,
                        "NORMAL" : 5,
                        "TEXCOORD_0" : 6
                    },
                    "indices" : 7,
                    "material" : 0
                }
            ]
        },
        {
            "name" : "Brain_Part_05.002_Mesh.010",
            "primitives" : [
                {
                    "attributes" : {
                        "POSITION" : 8,
                        "NORMAL" : 9,
                        "TEXCOORD_0" : 10
                    },
                    "indices" : 11,
                    "material" : 0
                }
            ]
        },
        {
            "name" : "Brain_Part_06.002_Mesh.001",
            "primitives" : [
                {
                    "attributes" : {
                        "POSITION" : 12,
                        "NORMAL" : 13,
                        "TEXCOORD_0" : 14
                    },
                    "indices" : 15,
                    "material" : 1
                }
            ]
        },
        {
            "name" : "Brain_Part_06.002_Mesh.011",
            "primitives" : [
                {
                    "attributes" : {
                        "POSITION" : 16,
                        "NORMAL" : 17,
                        "TEXCOORD_0" : 18
                    },
                    "indices" : 19,
                    "material" : 0
                }
            ]
        }
    ],
    "accessors" : [
        {
            "bufferView" : 0,
            "componentType" : 5126,
            "count" : 1184,
            "max" : [
                1.8512673377990723,
                -0.15320038795471191,
                -2.6403887271881104
            ],
            "min" : [
                -1.9865041971206665,
                -2.2386245727539062,
                -4.307727813720703
            ],
            "type" : "VEC3"
        },
        {
            "bufferView" : 1,
            "componentType" : 5126,
            "count" : 1184,
            "type" : "VEC3"
        },
        {
            "bufferView" : 2,
            "componentType" : 5126,
            "count" : 1184,
            "type" : "VEC2"
        },
        {
            "bufferView" : 3,
            "componentType" : 5123,
            "count" : 9720,
            "type" : "SCALAR"
        },
        {
            "bufferView" : 4,
            "componentType" : 5126,
            "count" : 18168,
            "max" : [
                2.3715763092041016,
                2.957664966583252,
                -3.275350570678711
            ],
            "min" : [
                -0.050970256328582764,
                -2.953702211380005,
                -7.0281524658203125
            ],
            "type" : "VEC3"
        },
        {
            "bufferView" : 5,
            "componentType" : 5126,
            "count" : 18168,
            "type" : "VEC3"
        },
        {
            "bufferView" : 6,
            "componentType" : 5126,
            "count" : 18168,
            "type" : "VEC2"
        },
        {
            "bufferView" : 7,
            "componentType" : 5123,
            "count" : 27252,
            "type" : "SCALAR"
        },
        {
            "bufferView" : 8,
            "componentType" : 5126,
            "count" : 269,
            "max" : [
                1.4284007549285889,
                1.613599419593811,
                -2.2328011989593506
            ],
            "min" : [
                -1.5923681259155273,
                -0.9470464587211609,
                -5.6801581382751465
            ],
            "type" : "VEC3"
        },
        {
            "bufferView" : 9,
            "componentType" : 5126,
            "count" : 269,
            "type" : "VEC3"
        },
        {
            "bufferView" : 10,
            "componentType" : 5126,
            "count" : 269,
            "type" : "VEC2"
        },
        {
            "bufferView" : 11,
            "componentType" : 5123,
            "count" : 2268,
            "type" : "SCALAR"
        },
        {
            "bufferView" : 12,
            "componentType" : 5126,
            "count" : 5556,
            "max" : [
                2.359876871109009,
                2.997128486633301,
                -2.242830276489258
            ],
            "min" : [
                -2.3254170417785645,
                -2.9443700313568115,
                -7.017054080963135
            ],
            "type" : "VEC3"
        },
        {
            "bufferView" : 13,
            "componentType" : 5126,
            "count" : 5556,
            "type" : "VEC3"
        },
        {
            "bufferView" : 14,
            "componentType" : 5126,
            "count" : 5556,
            "type" : "VEC2"
        },
        {
            "bufferView" : 15,
            "componentType" : 5123,
            "count" : 5562,
            "type" : "SCALAR"
        },
        {
            "bufferView" : 16,
            "componentType" : 5126,
            "count" : 3236,
            "max" : [
                0.18199951946735382,
                3.0091488361358643,
                -3.2507050037384033
            ],
            "min" : [
                -2.3368947505950928,
                -2.9561667442321777,
                -7.012367248535156
            ],
            "type" : "VEC3"
        },
        {
            "bufferView" : 17,
            "componentType" : 5126,
            "count" : 3236,
            "type" : "VEC3"
        },
        {
            "bufferView" : 18,
            "componentType" : 5126,
            "count" : 3236,
            "type" : "VEC2"
        },
        {
            "bufferView" : 19,
            "componentType" : 5123,
            "count" : 27504,
            "type" : "SCALAR"
        }
    ],
    "bufferViews" : [
        {
            "buffer" : 0,
            "byteLength" : 14208,
            "byteOffset" : 0
        },
        {
            "buffer" : 0,
            "byteLength" : 14208,
            "byteOffset" : 14208
        },
        {
            "buffer" : 0,
            "byteLength" : 9472,
            "byteOffset" : 28416
        },
        {
            "buffer" : 0,
            "byteLength" : 19440,
            "byteOffset" : 37888
        },
        {
            "buffer" : 0,
            "byteLength" : 218016,
            "byteOffset" : 57328
        },
        {
            "buffer" : 0,
            "byteLength" : 218016,
            "byteOffset" : 275344
        },
        {
            "buffer" : 0,
            "byteLength" : 145344,
            "byteOffset" : 493360
        },
        {
            "buffer" : 0,
            "byteLength" : 54504,
            "byteOffset" : 638704
        },
        {
            "buffer" : 0,
            "byteLength" : 3228,
            "byteOffset" : 693208
        },
        {
            "buffer" : 0,
            "byteLength" : 3228,
            "byteOffset" : 696436
        },
        {
            "buffer" : 0,
            "byteLength" : 2152,
            "byteOffset" : 699664
        },
        {
            "buffer" : 0,
            "byteLength" : 4536,
            "byteOffset" : 701816
        },
        {
            "buffer" : 0,
            "byteLength" : 66672,
            "byteOffset" : 706352
        },
        {
            "buffer" : 0,
            "byteLength" : 66672,
            "byteOffset" : 773024
        },
        {
            "buffer" : 0,
            "byteLength" : 44448,
            "byteOffset" : 839696
        },
        {
            "buffer" : 0,
            "byteLength" : 11124,
            "byteOffset" : 884144
        },
        {
            "buffer" : 0,
            "byteLength" : 38832,
            "byteOffset" : 895268
        },
        {
            "buffer" : 0,
            "byteLength" : 38832,
            "byteOffset" : 934100
        },
        {
            "buffer" : 0,
            "byteLength" : 25888,
            "byteOffset" : 972932
        },
        {
            "buffer" : 0,
            "byteLength" : 55008,
            "byteOffset" : 998820
        }
    ],
    "buffers" : [
        {
            "byteLength" : 1053828,
            "uri" : "Brain_002B.bin"
        }
    ]
}
