{
    "asset" : {
        "generator" : "Khronos glTF Blender I/O v1.5.17",
        "version" : "2.0"
    },
    "scene" : 0,
    "scenes" : [
        {
            "name" : "Scene",
            "nodes" : [
                6
            ]
        }
    ],
    "nodes" : [
        {
            "mesh" : 0,
            "name" : "Brain_Part_01.002"
        },
        {
            "mesh" : 1,
            "name" : "Brain_Part_02.002"
        },
        {
            "mesh" : 2,
            "name" : "Brain_Part_03.002"
        },
        {
            "mesh" : 3,
            "name" : "Brain_Part_04.002"
        },
        {
            "mesh" : 4,
            "name" : "Brain_Part_05.002"
        },
        {
            "mesh" : 5,
            "name" : "Brain_Part_06.002"
        },
        {
            "children" : [
                0,
                1,
                2,
                3,
                4,
                5
            ],
            "name" : "Brain.002",
            "rotation" : [
                0.707080602645874,
                -0.006091998424381018,
                0.006091999355703592,
                0.7070804834365845
            ],
            "scale" : [
                4.479867458343506,
                4.479867458343506,
                4.479867458343506
            ],
            "translation" : [
                0,
                2,
                0
            ]
        }
    ],
    "materials" : [
        {
            "doubleSided" : true,
            "name" : "BRAIN_TEXTURE_blinn2",
            "pbrMetallicRoughness" : {
                "roughnessFactor" : 0.5474786162376404
            }
        }
    ],
    "meshes" : [
        {
            "name" : "Mesh.006",
            "primitives" : [
                {
                    "attributes" : {
                        "POSITION" : 0,
                        "NORMAL" : 1,
                        "TEXCOORD_0" : 2
                    },
                    "indices" : 3,
                    "material" : 0
                }
            ]
        },
        {
            "name" : "Mesh.007",
            "primitives" : [
                {
                    "attributes" : {
                        "POSITION" : 4,
                        "NORMAL" : 5,
                        "TEXCOORD_0" : 6
                    },
                    "indices" : 7,
                    "material" : 0
                }
            ]
        },
        {
            "name" : "Mesh.008",
            "primitives" : [
                {
                    "attributes" : {
                        "POSITION" : 8,
                        "NORMAL" : 9,
                        "TEXCOORD_0" : 10,
                        "TEXCOORD_1" : 11
                    },
                    "indices" : 12,
                    "material" : 0
                }
            ]
        },
        {
            "name" : "Mesh.009",
            "primitives" : [
                {
                    "attributes" : {
                        "POSITION" : 13,
                        "NORMAL" : 14,
                        "TEXCOORD_0" : 15,
                        "TEXCOORD_1" : 16
                    },
                    "indices" : 17,
                    "material" : 0
                }
            ]
        },
        {
            "name" : "Mesh.010",
            "primitives" : [
                {
                    "attributes" : {
                        "POSITION" : 18,
                        "NORMAL" : 19,
                        "TEXCOORD_0" : 20
                    },
                    "indices" : 21,
                    "material" : 0
                }
            ]
        },
        {
            "name" : "Mesh.011",
            "primitives" : [
                {
                    "attributes" : {
                        "POSITION" : 22,
                        "NORMAL" : 23,
                        "TEXCOORD_0" : 24,
                        "TEXCOORD_1" : 25
                    },
                    "indices" : 26,
                    "material" : 0
                }
            ]
        }
    ],
    "accessors" : [
        {
            "bufferView" : 0,
            "componentType" : 5126,
            "count" : 9,
            "max" : [
                0.011622819118201733,
                0.20654724538326263,
                -0.3570241332054138
            ],
            "min" : [
                -0.03222279250621796,
                0.12015427649021149,
                -0.41151583194732666
            ],
            "type" : "VEC3"
        },
        {
            "bufferView" : 1,
            "componentType" : 5126,
            "count" : 9,
            "type" : "VEC3"
        },
        {
            "bufferView" : 2,
            "componentType" : 5126,
            "count" : 9,
            "type" : "VEC2"
        },
        {
            "bufferView" : 3,
            "componentType" : 5123,
            "count" : 9,
            "type" : "SCALAR"
        },
        {
            "bufferView" : 4,
            "componentType" : 5126,
            "count" : 798,
            "max" : [
                0.40844810009002686,
                -0.03774833679199219,
                -0.14403457939624786
            ],
            "min" : [
                -0.44582104682922363,
                -0.49682557582855225,
                -0.5140600204467773
            ],
            "type" : "VEC3"
        },
        {
            "bufferView" : 5,
            "componentType" : 5126,
            "count" : 798,
            "type" : "VEC3"
        },
        {
            "bufferView" : 6,
            "componentType" : 5126,
            "count" : 798,
            "type" : "VEC2"
        },
        {
            "bufferView" : 7,
            "componentType" : 5123,
            "count" : 810,
            "type" : "SCALAR"
        },
        {
            "bufferView" : 8,
            "componentType" : 5126,
            "count" : 67,
            "max" : [
                0.022761795669794083,
                0.19587711989879608,
                -0.5959161520004272
            ],
            "min" : [
                -0.052013423293828964,
                -0.17403146624565125,
                -0.8371402621269226
            ],
            "type" : "VEC3"
        },
        {
            "bufferView" : 9,
            "componentType" : 5126,
            "count" : 67,
            "type" : "VEC3"
        },
        {
            "bufferView" : 10,
            "componentType" : 5126,
            "count" : 67,
            "type" : "VEC2"
        },
        {
            "bufferView" : 11,
            "componentType" : 5126,
            "count" : 67,
            "type" : "VEC2"
        },
        {
            "bufferView" : 12,
            "componentType" : 5123,
            "count" : 69,
            "type" : "SCALAR"
        },
        {
            "bufferView" : 13,
            "componentType" : 5126,
            "count" : 2261,
            "max" : [
                0.5256367325782776,
                0.6572138071060181,
                -0.2857908010482788
            ],
            "min" : [
                -0.013528787530958652,
                -0.6592469215393066,
                -1.1213656663894653
            ],
            "type" : "VEC3"
        },
        {
            "bufferView" : 14,
            "componentType" : 5126,
            "count" : 2261,
            "type" : "VEC3"
        },
        {
            "bufferView" : 15,
            "componentType" : 5126,
            "count" : 2261,
            "type" : "VEC2"
        },
        {
            "bufferView" : 16,
            "componentType" : 5126,
            "count" : 2261,
            "type" : "VEC2"
        },
        {
            "bufferView" : 17,
            "componentType" : 5123,
            "count" : 2289,
            "type" : "SCALAR"
        },
        {
            "bufferView" : 18,
            "componentType" : 5126,
            "count" : 187,
            "max" : [
                0.315593957901001,
                0.35718318819999695,
                -0.05289027839899063
            ],
            "min" : [
                -0.35748291015625,
                -0.21061214804649353,
                -0.8205157518386841
            ],
            "type" : "VEC3"
        },
        {
            "bufferView" : 19,
            "componentType" : 5126,
            "count" : 187,
            "type" : "VEC3"
        },
        {
            "bufferView" : 20,
            "componentType" : 5126,
            "count" : 187,
            "type" : "VEC2"
        },
        {
            "bufferView" : 21,
            "componentType" : 5123,
            "count" : 189,
            "type" : "SCALAR"
        },
        {
            "bufferView" : 22,
            "componentType" : 5126,
            "count" : 2270,
            "max" : [
                0.036329228430986404,
                0.6722913980484009,
                -0.2802683711051941
            ],
            "min" : [
                -0.5233202576637268,
                -0.6579508781433105,
                -1.1179147958755493
            ],
            "type" : "VEC3"
        },
        {
            "bufferView" : 23,
            "componentType" : 5126,
            "count" : 2270,
            "type" : "VEC3"
        },
        {
            "bufferView" : 24,
            "componentType" : 5126,
            "count" : 2270,
            "type" : "VEC2"
        },
        {
            "bufferView" : 25,
            "componentType" : 5126,
            "count" : 2270,
            "type" : "VEC2"
        },
        {
            "bufferView" : 26,
            "componentType" : 5123,
            "count" : 2292,
            "type" : "SCALAR"
        }
    ],
    "bufferViews" : [
        {
            "buffer" : 0,
            "byteLength" : 108,
            "byteOffset" : 0
        },
        {
            "buffer" : 0,
            "byteLength" : 108,
            "byteOffset" : 108
        },
        {
            "buffer" : 0,
            "byteLength" : 72,
            "byteOffset" : 216
        },
        {
            "buffer" : 0,
            "byteLength" : 18,
            "byteOffset" : 288
        },
        {
            "buffer" : 0,
            "byteLength" : 9576,
            "byteOffset" : 308
        },
        {
            "buffer" : 0,
            "byteLength" : 9576,
            "byteOffset" : 9884
        },
        {
            "buffer" : 0,
            "byteLength" : 6384,
            "byteOffset" : 19460
        },
        {
            "buffer" : 0,
            "byteLength" : 1620,
            "byteOffset" : 25844
        },
        {
            "buffer" : 0,
            "byteLength" : 804,
            "byteOffset" : 27464
        },
        {
            "buffer" : 0,
            "byteLength" : 804,
            "byteOffset" : 28268
        },
        {
            "buffer" : 0,
            "byteLength" : 536,
            "byteOffset" : 29072
        },
        {
            "buffer" : 0,
            "byteLength" : 536,
            "byteOffset" : 29608
        },
        {
            "buffer" : 0,
            "byteLength" : 138,
            "byteOffset" : 30144
        },
        {
            "buffer" : 0,
            "byteLength" : 27132,
            "byteOffset" : 30284
        },
        {
            "buffer" : 0,
            "byteLength" : 27132,
            "byteOffset" : 57416
        },
        {
            "buffer" : 0,
            "byteLength" : 18088,
            "byteOffset" : 84548
        },
        {
            "buffer" : 0,
            "byteLength" : 18088,
            "byteOffset" : 102636
        },
        {
            "buffer" : 0,
            "byteLength" : 4578,
            "byteOffset" : 120724
        },
        {
            "buffer" : 0,
            "byteLength" : 2244,
            "byteOffset" : 125304
        },
        {
            "buffer" : 0,
            "byteLength" : 2244,
            "byteOffset" : 127548
        },
        {
            "buffer" : 0,
            "byteLength" : 1496,
            "byteOffset" : 129792
        },
        {
            "buffer" : 0,
            "byteLength" : 378,
            "byteOffset" : 131288
        },
        {
            "buffer" : 0,
            "byteLength" : 27240,
            "byteOffset" : 131668
        },
        {
            "buffer" : 0,
            "byteLength" : 27240,
            "byteOffset" : 158908
        },
        {
            "buffer" : 0,
            "byteLength" : 18160,
            "byteOffset" : 186148
        },
        {
            "buffer" : 0,
            "byteLength" : 18160,
            "byteOffset" : 204308
        },
        {
            "buffer" : 0,
            "byteLength" : 4584,
            "byteOffset" : 222468
        }
    ],
    "buffers" : [
        {
            "byteLength" : 227052,
            "uri" : "Brain_001.bin"
        }
    ]
}
