{
    "asset" : {
        "generator" : "Khronos glTF Blender I/O v1.5.17",
        "version" : "2.0"
    },
    "scene" : 0,
    "scenes" : [
        {
            "name" : "Scene",
            "nodes" : [
                0,
                1,
                2,
                3,
                4,
                5
            ]
        }
    ],
    "nodes" : [
        {
            "mesh" : 0,
            "name" : "Icosphere.001"
        },
        {
            "mesh" : 1,
            "name" : "Cube.005",
            "scale" : [
                0.11285175383090973,
                0.11285175383090973,
                0.11285175383090973
            ],
            "translation" : [
                -0.0162908174097538,
                0.9872913360595703,
                -0.0032165050506591797
            ]
        },
        {
            "mesh" : 2,
            "name" : "Cube.006",
            "scale" : [
                0.11285175383090973,
                0.11285175383090973,
                0.11285175383090973
            ],
            "translation" : [
                0.8914934396743774,
                0.4562661945819855,
                0.004666000604629517
            ]
        },
        {
            "mesh" : 3,
            "name" : "Cube.007",
            "scale" : [
                0.11285175383090973,
                0.11285175383090973,
                0.11285175383090973
            ],
            "translation" : [
                0.018059998750686646,
                -0.03529828041791916,
                -0.9911729693412781
            ]
        },
        {
            "mesh" : 4,
            "name" : "Cube.008",
            "scale" : [
                0.11285175383090973,
                0.11285175383090973,
                0.11285175383090973
            ],
            "translation" : [
                -0.6864749789237976,
                -0.5179554224014282,
                -0.4245978593826294
            ]
        },
        {
            "mesh" : 5,
            "name" : "Cube.009",
            "scale" : [
                0.11285175383090973,
                0.11285175383090973,
                0.11285175383090973
            ],
            "translation" : [
                -0.003916382789611816,
                -0.013681374490261078,
                0.982383668422699
            ]
        }
    ],
    "meshes" : [
        {
            "name" : "Icosphere.001",
            "primitives" : [
                {
                    "attributes" : {
                        "POSITION" : 0,
                        "NORMAL" : 1,
                        "TEXCOORD_0" : 2
                    },
                    "indices" : 3
                }
            ]
        },
        {
            "name" : "Cube.007",
            "primitives" : [
                {
                    "attributes" : {
                        "POSITION" : 4,
                        "NORMAL" : 5,
                        "TEXCOORD_0" : 6
                    },
                    "indices" : 7
                }
            ]
        },
        {
            "name" : "Cube.008",
            "primitives" : [
                {
                    "attributes" : {
                        "POSITION" : 8,
                        "NORMAL" : 9,
                        "TEXCOORD_0" : 10
                    },
                    "indices" : 7
                }
            ]
        },
        {
            "name" : "Cube.009",
            "primitives" : [
                {
                    "attributes" : {
                        "POSITION" : 11,
                        "NORMAL" : 12,
                        "TEXCOORD_0" : 13
                    },
                    "indices" : 7
                }
            ]
        },
        {
            "name" : "Cube.010",
            "primitives" : [
                {
                    "attributes" : {
                        "POSITION" : 14,
                        "NORMAL" : 15,
                        "TEXCOORD_0" : 16
                    },
                    "indices" : 7
                }
            ]
        },
        {
            "name" : "Cube.011",
            "primitives" : [
                {
                    "attributes" : {
                        "POSITION" : 17,
                        "NORMAL" : 18,
                        "TEXCOORD_0" : 19
                    },
                    "indices" : 7
                }
            ]
        }
    ],
    "accessors" : [
        {
            "bufferView" : 0,
            "componentType" : 5126,
            "count" : 240,
            "max" : [
                0.9510578513145447,
                1,
                0.9999999403953552
            ],
            "min" : [
                -0.9510578513145447,
                -1,
                -0.9999999403953552
            ],
            "type" : "VEC3"
        },
        {
            "bufferView" : 1,
            "componentType" : 5126,
            "count" : 240,
            "type" : "VEC3"
        },
        {
            "bufferView" : 2,
            "componentType" : 5126,
            "count" : 240,
            "type" : "VEC2"
        },
        {
            "bufferView" : 3,
            "componentType" : 5123,
            "count" : 240,
            "type" : "SCALAR"
        },
        {
            "bufferView" : 4,
            "componentType" : 5126,
            "count" : 24,
            "max" : [
                1,
                1,
                1
            ],
            "min" : [
                -1,
                -1,
                -1
            ],
            "type" : "VEC3"
        },
        {
            "bufferView" : 5,
            "componentType" : 5126,
            "count" : 24,
            "type" : "VEC3"
        },
        {
            "bufferView" : 6,
            "componentType" : 5126,
            "count" : 24,
            "type" : "VEC2"
        },
        {
            "bufferView" : 7,
            "componentType" : 5123,
            "count" : 36,
            "type" : "SCALAR"
        },
        {
            "bufferView" : 8,
            "componentType" : 5126,
            "count" : 24,
            "max" : [
                1,
                1,
                1
            ],
            "min" : [
                -1,
                -1,
                -1
            ],
            "type" : "VEC3"
        },
        {
            "bufferView" : 9,
            "componentType" : 5126,
            "count" : 24,
            "type" : "VEC3"
        },
        {
            "bufferView" : 10,
            "componentType" : 5126,
            "count" : 24,
            "type" : "VEC2"
        },
        {
            "bufferView" : 11,
            "componentType" : 5126,
            "count" : 24,
            "max" : [
                1,
                1,
                1
            ],
            "min" : [
                -1,
                -1,
                -1
            ],
            "type" : "VEC3"
        },
        {
            "bufferView" : 12,
            "componentType" : 5126,
            "count" : 24,
            "type" : "VEC3"
        },
        {
            "bufferView" : 13,
            "componentType" : 5126,
            "count" : 24,
            "type" : "VEC2"
        },
        {
            "bufferView" : 14,
            "componentType" : 5126,
            "count" : 24,
            "max" : [
                1,
                1,
                1
            ],
            "min" : [
                -1,
                -1,
                -1
            ],
            "type" : "VEC3"
        },
        {
            "bufferView" : 15,
            "componentType" : 5126,
            "count" : 24,
            "type" : "VEC3"
        },
        {
            "bufferView" : 16,
            "componentType" : 5126,
            "count" : 24,
            "type" : "VEC2"
        },
        {
            "bufferView" : 17,
            "componentType" : 5126,
            "count" : 24,
            "max" : [
                1,
                1,
                1
            ],
            "min" : [
                -1,
                -1,
                -1
            ],
            "type" : "VEC3"
        },
        {
            "bufferView" : 18,
            "componentType" : 5126,
            "count" : 24,
            "type" : "VEC3"
        },
        {
            "bufferView" : 19,
            "componentType" : 5126,
            "count" : 24,
            "type" : "VEC2"
        }
    ],
    "bufferViews" : [
        {
            "buffer" : 0,
            "byteLength" : 2880,
            "byteOffset" : 0
        },
        {
            "buffer" : 0,
            "byteLength" : 2880,
            "byteOffset" : 2880
        },
        {
            "buffer" : 0,
            "byteLength" : 1920,
            "byteOffset" : 5760
        },
        {
            "buffer" : 0,
            "byteLength" : 480,
            "byteOffset" : 7680
        },
        {
            "buffer" : 0,
            "byteLength" : 288,
            "byteOffset" : 8160
        },
        {
            "buffer" : 0,
            "byteLength" : 288,
            "byteOffset" : 8448
        },
        {
            "buffer" : 0,
            "byteLength" : 192,
            "byteOffset" : 8736
        },
        {
            "buffer" : 0,
            "byteLength" : 72,
            "byteOffset" : 8928
        },
        {
            "buffer" : 0,
            "byteLength" : 288,
            "byteOffset" : 9000
        },
        {
            "buffer" : 0,
            "byteLength" : 288,
            "byteOffset" : 9288
        },
        {
            "buffer" : 0,
            "byteLength" : 192,
            "byteOffset" : 9576
        },
        {
            "buffer" : 0,
            "byteLength" : 288,
            "byteOffset" : 9768
        },
        {
            "buffer" : 0,
            "byteLength" : 288,
            "byteOffset" : 10056
        },
        {
            "buffer" : 0,
            "byteLength" : 192,
            "byteOffset" : 10344
        },
        {
            "buffer" : 0,
            "byteLength" : 288,
            "byteOffset" : 10536
        },
        {
            "buffer" : 0,
            "byteLength" : 288,
            "byteOffset" : 10824
        },
        {
            "buffer" : 0,
            "byteLength" : 192,
            "byteOffset" : 11112
        },
        {
            "buffer" : 0,
            "byteLength" : 288,
            "byteOffset" : 11304
        },
        {
            "buffer" : 0,
            "byteLength" : 288,
            "byteOffset" : 11592
        },
        {
            "buffer" : 0,
            "byteLength" : 192,
            "byteOffset" : 11880
        }
    ],
    "buffers" : [
        {
            "byteLength" : 12072,
            "uri" : "data:application/octet-stream;base64,"
        }
    ]
}
