{
    "asset" : {
        "generator" : "Khronos glTF Blender I/O v1.5.17",
        "version" : "2.0"
    },
    "extensionsUsed" : [
        "KHR_materials_transmission"
    ],
    "scene" : 0,
    "scenes" : [
        {
            "name" : "Scene",
            "nodes" : [
                8
            ]
        }
    ],
    "nodes" : [
        {
            "mesh" : 0,
            "name" : "BrainBorder",
            "rotation" : [
                0.7071068286895752,
                0,
                0,
                0.7071067094802856
            ],
            "translation" : [
                0,
                5,
                0
            ]
        },
        {
            "mesh" : 1,
            "name" : "BrainDomo",
            "scale" : [
                -83.58826446533203,
                -83.58826446533203,
                -83.58826446533203
            ],
            "translation" : [
                0,
                5,
                0
            ]
        },
        {
            "mesh" : 2,
            "name" : "BrainSolid",
            "rotation" : [
                0.7071068286895752,
                0,
                0,
                0.7071067094802856
            ],
            "translation" : [
                0,
                5,
                0
            ]
        },
        {
            "mesh" : 3,
            "name" : "IPoint A",
            "scale" : [
                0.08925812691450119,
                0.08925812691450119,
                0.08925812691450119
            ],
            "translation" : [
                0,
                5,
                0
            ]
        },
        {
            "mesh" : 4,
            "name" : "IPoint B",
            "scale" : [
                0.08925812691450119,
                0.08925812691450119,
                0.08925812691450119
            ],
            "translation" : [
                -0.014880701899528503,
                5.026634216308594,
                0.04293779283761978
            ]
        },
        {
            "mesh" : 5,
            "name" : "IPoint C",
            "scale" : [
                0.08925812691450119,
                0.08925812691450119,
                0.08925812691450119
            ],
            "translation" : [
                0,
                5,
                0
            ]
        },
        {
            "mesh" : 6,
            "name" : "IPoint D",
            "scale" : [
                0.08925812691450119,
                0.08925812691450119,
                0.08925812691450119
            ],
            "translation" : [
                0,
                5,
                0
            ]
        },
        {
            "mesh" : 7,
            "name" : "IPoint E",
            "scale" : [
                0.08925812691450119,
                0.08925812691450119,
                0.08925812691450119
            ],
            "translation" : [
                0,
                5,
                0
            ]
        },
        {
            "children" : [
                0,
                1,
                2,
                3,
                4,
                5,
                6,
                7
            ],
            "name" : "Brain",
            "translation" : [
                0,
                -5,
                0
            ]
        }
    ],
    "materials" : [
        {
            "alphaMode" : "BLEND",
            "emissiveFactor" : [
                0.680298924446106,
                1,
                0.7581411600112915
            ],
            "extensions" : {
                "KHR_materials_transmission" : {
                    "transmissionFactor" : 1
                }
            },
            "name" : "BrainSolid",
            "pbrMetallicRoughness" : {
                "baseColorFactor" : [
                    0,
                    0,
                    0,
                    1
                ],
                "metallicFactor" : 0,
                "roughnessFactor" : 0.5
            }
        },
        {
            "doubleSided" : true,
            "emissiveFactor" : [
                0.0003035266709048301,
                0.054480284452438354,
                0.08865559101104736
            ],
            "name" : "Material",
            "pbrMetallicRoughness" : {
                "baseColorFactor" : [
                    0,
                    0,
                    0,
                    1
                ],
                "metallicFactor" : 0
            }
        },
        {
            "alphaMode" : "BLEND",
            "doubleSided" : true,
            "emissiveFactor" : [
                1,
                1,
                1
            ],
            "emissiveTexture" : {
                "index" : 0
            },
            "name" : "BrainSolid.001",
            "pbrMetallicRoughness" : {
                "baseColorTexture" : {
                    "index" : 1
                },
                "roughnessFactor" : 0.1775427609682083
            }
        }
    ],
    "meshes" : [
        {
            "name" : "BrainBorder",
            "primitives" : [
                {
                    "attributes" : {
                        "POSITION" : 0,
                        "NORMAL" : 1,
                        "TEXCOORD_0" : 2
                    },
                    "indices" : 3,
                    "material" : 0
                }
            ]
        },
        {
            "name" : "BrainDomo",
            "primitives" : [
                {
                    "attributes" : {
                        "POSITION" : 4,
                        "NORMAL" : 5,
                        "TEXCOORD_0" : 6
                    },
                    "indices" : 7,
                    "material" : 1
                }
            ]
        },
        {
            "name" : "BrainSolid",
            "primitives" : [
                {
                    "attributes" : {
                        "POSITION" : 8,
                        "NORMAL" : 9,
                        "TEXCOORD_0" : 10
                    },
                    "indices" : 11,
                    "material" : 2
                }
            ]
        },
        {
            "name" : "IPoint A",
            "primitives" : [
                {
                    "attributes" : {
                        "POSITION" : 12,
                        "NORMAL" : 13,
                        "TEXCOORD_0" : 14
                    },
                    "indices" : 15,
                    "material" : 0
                }
            ]
        },
        {
            "name" : "IPoint B",
            "primitives" : [
                {
                    "attributes" : {
                        "POSITION" : 16,
                        "NORMAL" : 17,
                        "TEXCOORD_0" : 18
                    },
                    "indices" : 19,
                    "material" : 0
                }
            ]
        },
        {
            "name" : "IPoint C",
            "primitives" : [
                {
                    "attributes" : {
                        "POSITION" : 20,
                        "NORMAL" : 21,
                        "TEXCOORD_0" : 22
                    },
                    "indices" : 23,
                    "material" : 0
                }
            ]
        },
        {
            "name" : "IPoint D",
            "primitives" : [
                {
                    "attributes" : {
                        "POSITION" : 24,
                        "NORMAL" : 25,
                        "TEXCOORD_0" : 26
                    },
                    "indices" : 27,
                    "material" : 0
                }
            ]
        },
        {
            "name" : "IPoint E",
            "primitives" : [
                {
                    "attributes" : {
                        "POSITION" : 28,
                        "NORMAL" : 29,
                        "TEXCOORD_0" : 30
                    },
                    "indices" : 31,
                    "material" : 0
                }
            ]
        }
    ],
    "textures" : [
        {
            "sampler" : 0,
            "source" : 0
        },
        {
            "sampler" : 0,
            "source" : 1
        }
    ],
    "images" : [
        {
            "mimeType" : "image/png",
            "name" : "BrainEmission",
            "uri" : "BrainEmission.png"
        },
        {
            "mimeType" : "image/png",
            "name" : "BrainDiffuse",
            "uri" : "BrainDiffuse.png"
        }
    ],
    "accessors" : [
        {
            "bufferView" : 0,
            "componentType" : 5126,
            "count" : 5556,
            "max" : [
                2.366745948791504,
                3.0041866302490234,
                2.7630579471588135
            ],
            "min" : [
                -2.33215594291687,
                -2.9512953758239746,
                -2.0235700607299805
            ],
            "type" : "VEC3"
        },
        {
            "bufferView" : 1,
            "componentType" : 5126,
            "count" : 5556,
            "type" : "VEC3"
        },
        {
            "bufferView" : 2,
            "componentType" : 5126,
            "count" : 5556,
            "type" : "VEC2"
        },
        {
            "bufferView" : 3,
            "componentType" : 5123,
            "count" : 5562,
            "type" : "SCALAR"
        },
        {
            "bufferView" : 4,
            "componentType" : 5126,
            "count" : 559,
            "max" : [
                1.000000238418579,
                1,
                1.0000003576278687
            ],
            "min" : [
                -0.9999998211860657,
                -1,
                -1
            ],
            "type" : "VEC3"
        },
        {
            "bufferView" : 5,
            "componentType" : 5126,
            "count" : 559,
            "type" : "VEC3"
        },
        {
            "bufferView" : 6,
            "componentType" : 5126,
            "count" : 559,
            "type" : "VEC2"
        },
        {
            "bufferView" : 7,
            "componentType" : 5123,
            "count" : 2880,
            "type" : "SCALAR"
        },
        {
            "bufferView" : 8,
            "componentType" : 5126,
            "count" : 5556,
            "max" : [
                2.366745948791504,
                3.0041866302490234,
                2.7630579471588135
            ],
            "min" : [
                -2.33215594291687,
                -2.9512953758239746,
                -2.0235700607299805
            ],
            "type" : "VEC3"
        },
        {
            "bufferView" : 9,
            "componentType" : 5126,
            "count" : 5556,
            "type" : "VEC3"
        },
        {
            "bufferView" : 10,
            "componentType" : 5126,
            "count" : 5556,
            "type" : "VEC2"
        },
        {
            "bufferView" : 11,
            "componentType" : 5123,
            "count" : 5562,
            "type" : "SCALAR"
        },
        {
            "bufferView" : 12,
            "componentType" : 5126,
            "count" : 112,
            "max" : [
                16.468467712402344,
                -3.257164478302002,
                28.04378890991211
            ],
            "min" : [
                14.468466758728027,
                -5.257164478302002,
                26.04378890991211
            ],
            "type" : "VEC3"
        },
        {
            "bufferView" : 13,
            "componentType" : 5126,
            "count" : 112,
            "type" : "VEC3"
        },
        {
            "bufferView" : 14,
            "componentType" : 5126,
            "count" : 112,
            "type" : "VEC2"
        },
        {
            "bufferView" : 15,
            "componentType" : 5123,
            "count" : 144,
            "type" : "SCALAR"
        },
        {
            "bufferView" : 16,
            "componentType" : 5126,
            "count" : 112,
            "max" : [
                28.096895217895508,
                -7.966649055480957,
                2.148804187774658
            ],
            "min" : [
                26.096895217895508,
                -9.966649055480957,
                0.1488041877746582
            ],
            "type" : "VEC3"
        },
        {
            "bufferView" : 17,
            "componentType" : 5126,
            "count" : 112,
            "type" : "VEC3"
        },
        {
            "bufferView" : 18,
            "componentType" : 5126,
            "count" : 112,
            "type" : "VEC2"
        },
        {
            "bufferView" : 19,
            "componentType" : 5123,
            "count" : 144,
            "type" : "SCALAR"
        },
        {
            "bufferView" : 20,
            "componentType" : 5126,
            "count" : 112,
            "max" : [
                14.554396629333496,
                17.136714935302734,
                -10.964607238769531
            ],
            "min" : [
                12.554396629333496,
                15.136714935302734,
                -12.964607238769531
            ],
            "type" : "VEC3"
        },
        {
            "bufferView" : 21,
            "componentType" : 5126,
            "count" : 112,
            "type" : "VEC3"
        },
        {
            "bufferView" : 22,
            "componentType" : 5126,
            "count" : 112,
            "type" : "VEC2"
        },
        {
            "bufferView" : 23,
            "componentType" : 5123,
            "count" : 144,
            "type" : "SCALAR"
        },
        {
            "bufferView" : 24,
            "componentType" : 5126,
            "count" : 112,
            "max" : [
                1.1491825580596924,
                -22.53164291381836,
                -1.6550734043121338
            ],
            "min" : [
                -0.8508175015449524,
                -24.53164291381836,
                -3.655073404312134
            ],
            "type" : "VEC3"
        },
        {
            "bufferView" : 25,
            "componentType" : 5126,
            "count" : 112,
            "type" : "VEC3"
        },
        {
            "bufferView" : 26,
            "componentType" : 5126,
            "count" : 112,
            "type" : "VEC2"
        },
        {
            "bufferView" : 27,
            "componentType" : 5123,
            "count" : 144,
            "type" : "SCALAR"
        },
        {
            "bufferView" : 28,
            "componentType" : 5126,
            "count" : 112,
            "max" : [
                11.819032669067383,
                13.376504898071289,
                25.635116577148438
            ],
            "min" : [
                9.819032669067383,
                11.376504898071289,
                23.635116577148438
            ],
            "type" : "VEC3"
        },
        {
            "bufferView" : 29,
            "componentType" : 5126,
            "count" : 112,
            "type" : "VEC3"
        },
        {
            "bufferView" : 30,
            "componentType" : 5126,
            "count" : 112,
            "type" : "VEC2"
        },
        {
            "bufferView" : 31,
            "componentType" : 5123,
            "count" : 144,
            "type" : "SCALAR"
        }
    ],
    "bufferViews" : [
        {
            "buffer" : 0,
            "byteLength" : 66672,
            "byteOffset" : 0
        },
        {
            "buffer" : 0,
            "byteLength" : 66672,
            "byteOffset" : 66672
        },
        {
            "buffer" : 0,
            "byteLength" : 44448,
            "byteOffset" : 133344
        },
        {
            "buffer" : 0,
            "byteLength" : 11124,
            "byteOffset" : 177792
        },
        {
            "buffer" : 0,
            "byteLength" : 6708,
            "byteOffset" : 188916
        },
        {
            "buffer" : 0,
            "byteLength" : 6708,
            "byteOffset" : 195624
        },
        {
            "buffer" : 0,
            "byteLength" : 4472,
            "byteOffset" : 202332
        },
        {
            "buffer" : 0,
            "byteLength" : 5760,
            "byteOffset" : 206804
        },
        {
            "buffer" : 0,
            "byteLength" : 66672,
            "byteOffset" : 212564
        },
        {
            "buffer" : 0,
            "byteLength" : 66672,
            "byteOffset" : 279236
        },
        {
            "buffer" : 0,
            "byteLength" : 44448,
            "byteOffset" : 345908
        },
        {
            "buffer" : 0,
            "byteLength" : 11124,
            "byteOffset" : 390356
        },
        {
            "buffer" : 0,
            "byteLength" : 1344,
            "byteOffset" : 401480
        },
        {
            "buffer" : 0,
            "byteLength" : 1344,
            "byteOffset" : 402824
        },
        {
            "buffer" : 0,
            "byteLength" : 896,
            "byteOffset" : 404168
        },
        {
            "buffer" : 0,
            "byteLength" : 288,
            "byteOffset" : 405064
        },
        {
            "buffer" : 0,
            "byteLength" : 1344,
            "byteOffset" : 405352
        },
        {
            "buffer" : 0,
            "byteLength" : 1344,
            "byteOffset" : 406696
        },
        {
            "buffer" : 0,
            "byteLength" : 896,
            "byteOffset" : 408040
        },
        {
            "buffer" : 0,
            "byteLength" : 288,
            "byteOffset" : 408936
        },
        {
            "buffer" : 0,
            "byteLength" : 1344,
            "byteOffset" : 409224
        },
        {
            "buffer" : 0,
            "byteLength" : 1344,
            "byteOffset" : 410568
        },
        {
            "buffer" : 0,
            "byteLength" : 896,
            "byteOffset" : 411912
        },
        {
            "buffer" : 0,
            "byteLength" : 288,
            "byteOffset" : 412808
        },
        {
            "buffer" : 0,
            "byteLength" : 1344,
            "byteOffset" : 413096
        },
        {
            "buffer" : 0,
            "byteLength" : 1344,
            "byteOffset" : 414440
        },
        {
            "buffer" : 0,
            "byteLength" : 896,
            "byteOffset" : 415784
        },
        {
            "buffer" : 0,
            "byteLength" : 288,
            "byteOffset" : 416680
        },
        {
            "buffer" : 0,
            "byteLength" : 1344,
            "byteOffset" : 416968
        },
        {
            "buffer" : 0,
            "byteLength" : 1344,
            "byteOffset" : 418312
        },
        {
            "buffer" : 0,
            "byteLength" : 896,
            "byteOffset" : 419656
        },
        {
            "buffer" : 0,
            "byteLength" : 288,
            "byteOffset" : 420552
        }
    ],
    "samplers" : [
        {
            "magFilter" : 9729,
            "minFilter" : 9987
        }
    ],
    "buffers" : [
        {
            "byteLength" : 420840,
            "uri" : "Brain_003.bin"
        }
    ]
}
