{
    "asset" : {
        "generator" : "Khronos glTF Blender I/O v1.5.17",
        "version" : "2.0"
    },
    "scene" : 0,
    "scenes" : [
        {
            "name" : "Scene",
            "nodes" : [
                6
            ]
        }
    ],
    "nodes" : [
        {
            "mesh" : 0,
            "name" : "BrainSolid Light A",
            "rotation" : [
                0.7071068286895752,
                0,
                0,
                0.7071067094802856
            ],
            "translation" : [
                0,
                5,
                0
            ]
        },
        {
            "mesh" : 1,
            "name" : "BrainSolid Light B",
            "rotation" : [
                0.7071068286895752,
                0,
                0,
                0.7071067094802856
            ],
            "translation" : [
                0,
                5,
                0
            ]
        },
        {
            "mesh" : 2,
            "name" : "BrainSolid Light C",
            "rotation" : [
                0.7071068286895752,
                0,
                0,
                0.7071067094802856
            ],
            "translation" : [
                0,
                5,
                0
            ]
        },
        {
            "mesh" : 3,
            "name" : "BrainSolid Light D",
            "rotation" : [
                0.7071068286895752,
                0,
                0,
                0.7071067094802856
            ],
            "translation" : [
                0,
                5,
                0
            ]
        },
        {
            "mesh" : 4,
            "name" : "BrainSolid Light E",
            "rotation" : [
                0.7071068286895752,
                0,
                0,
                0.7071067094802856
            ],
            "translation" : [
                0,
                5,
                0
            ]
        },
        {
            "mesh" : 5,
            "name" : "BrainSolid Light F",
            "rotation" : [
                0.7071068286895752,
                0,
                0,
                0.7071067094802856
            ],
            "translation" : [
                0,
                5,
                0
            ]
        },
        {
            "children" : [
                0,
                1,
                2,
                3,
                4,
                5
            ],
            "name" : "Brain",
            "translation" : [
                0,
                -5,
                0
            ]
        }
    ],
    "materials" : [
        {
            "alphaMode" : "BLEND",
            "emissiveFactor" : [
                1,
                1,
                1
            ],
            "emissiveTexture" : {
                "index" : 0
            },
            "name" : "BrainSolid Light",
            "pbrMetallicRoughness" : {
                "baseColorTexture" : {
                    "index" : 1
                },
                "roughnessFactor" : 0.2500000298023224
            }
        }
    ],
    "meshes" : [
        {
            "name" : "BrainSolid Light A",
            "primitives" : [
                {
                    "attributes" : {
                        "POSITION" : 0,
                        "NORMAL" : 1,
                        "TEXCOORD_0" : 2
                    },
                    "indices" : 3,
                    "material" : 0
                }
            ]
        },
        {
            "name" : "BrainSolid Light B",
            "primitives" : [
                {
                    "attributes" : {
                        "POSITION" : 4,
                        "NORMAL" : 5,
                        "TEXCOORD_0" : 6
                    },
                    "indices" : 7,
                    "material" : 0
                }
            ]
        },
        {
            "name" : "BrainSolid Light C",
            "primitives" : [
                {
                    "attributes" : {
                        "POSITION" : 8,
                        "NORMAL" : 9,
                        "TEXCOORD_0" : 10
                    },
                    "indices" : 11,
                    "material" : 0
                }
            ]
        },
        {
            "name" : "BrainSolid Light D",
            "primitives" : [
                {
                    "attributes" : {
                        "POSITION" : 12,
                        "NORMAL" : 13,
                        "TEXCOORD_0" : 14
                    },
                    "indices" : 15,
                    "material" : 0
                }
            ]
        },
        {
            "name" : "BrainSolid Light E",
            "primitives" : [
                {
                    "attributes" : {
                        "POSITION" : 16,
                        "NORMAL" : 17,
                        "TEXCOORD_0" : 18
                    },
                    "indices" : 19,
                    "material" : 0
                }
            ]
        },
        {
            "name" : "BrainSolid Light F",
            "primitives" : [
                {
                    "attributes" : {
                        "POSITION" : 20,
                        "NORMAL" : 21,
                        "TEXCOORD_0" : 22
                    },
                    "indices" : 23,
                    "material" : 0
                }
            ]
        }
    ],
    "textures" : [
        {
            "sampler" : 0,
            "source" : 0
        },
        {
            "sampler" : 0,
            "source" : 1
        }
    ],
    "images" : [
        {
            "mimeType" : "image/png",
            "name" : "BrainEmission",
            "uri" : "BrainEmission.png"
        },
        {
            "mimeType" : "image/png",
            "name" : "BrainDiffuse",
            "uri" : "BrainDiffuse.png"
        }
    ],
    "accessors" : [
        {
            "bufferView" : 0,
            "componentType" : 5126,
            "count" : 177,
            "max" : [
                1.5973891019821167,
                2.945681095123291,
                0.011602620594203472
            ],
            "min" : [
                0.024786172434687614,
                0.6774606704711914,
                -1.955363154411316
            ],
            "type" : "VEC3"
        },
        {
            "bufferView" : 1,
            "componentType" : 5126,
            "count" : 177,
            "type" : "VEC3"
        },
        {
            "bufferView" : 2,
            "componentType" : 5126,
            "count" : 177,
            "type" : "VEC2"
        },
        {
            "bufferView" : 3,
            "componentType" : 5123,
            "count" : 177,
            "type" : "SCALAR"
        },
        {
            "bufferView" : 4,
            "componentType" : 5126,
            "count" : 141,
            "max" : [
                2.0682644844055176,
                2.945681095123291,
                1.036263108253479
            ],
            "min" : [
                -0.01767507754266262,
                0.8034675121307373,
                -0.7285298109054565
            ],
            "type" : "VEC3"
        },
        {
            "bufferView" : 5,
            "componentType" : 5126,
            "count" : 141,
            "type" : "VEC3"
        },
        {
            "bufferView" : 6,
            "componentType" : 5126,
            "count" : 141,
            "type" : "VEC2"
        },
        {
            "bufferView" : 7,
            "componentType" : 5123,
            "count" : 141,
            "type" : "SCALAR"
        },
        {
            "bufferView" : 8,
            "componentType" : 5126,
            "count" : 156,
            "max" : [
                2.359876871109009,
                1.729600191116333,
                0.9334571361541748
            ],
            "min" : [
                1.3808298110961914,
                -2.031029462814331,
                -0.8327412009239197
            ],
            "type" : "VEC3"
        },
        {
            "bufferView" : 9,
            "componentType" : 5126,
            "count" : 156,
            "type" : "VEC3"
        },
        {
            "bufferView" : 10,
            "componentType" : 5126,
            "count" : 156,
            "type" : "VEC2"
        },
        {
            "bufferView" : 11,
            "componentType" : 5123,
            "count" : 156,
            "type" : "SCALAR"
        },
        {
            "bufferView" : 12,
            "componentType" : 5126,
            "count" : 48,
            "max" : [
                0.543224036693573,
                0.6603047251701355,
                2.757169723510742
            ],
            "min" : [
                -0.6100376844406128,
                -0.941813051700592,
                0.4673364460468292
            ],
            "type" : "VEC3"
        },
        {
            "bufferView" : 13,
            "componentType" : 5126,
            "count" : 48,
            "type" : "VEC3"
        },
        {
            "bufferView" : 14,
            "componentType" : 5126,
            "count" : 48,
            "type" : "VEC2"
        },
        {
            "bufferView" : 15,
            "componentType" : 5123,
            "count" : 48,
            "type" : "SCALAR"
        },
        {
            "bufferView" : 16,
            "componentType" : 5126,
            "count" : 156,
            "max" : [
                0.010936800390481949,
                -0.796847403049469,
                0.17487657070159912
            ],
            "min" : [
                -1.6252429485321045,
                -2.8307981491088867,
                -1.9376975297927856
            ],
            "type" : "VEC3"
        },
        {
            "bufferView" : 17,
            "componentType" : 5126,
            "count" : 156,
            "type" : "VEC3"
        },
        {
            "bufferView" : 18,
            "componentType" : 5126,
            "count" : 156,
            "type" : "VEC2"
        },
        {
            "bufferView" : 19,
            "componentType" : 5123,
            "count" : 156,
            "type" : "SCALAR"
        },
        {
            "bufferView" : 20,
            "componentType" : 5126,
            "count" : 258,
            "max" : [
                -1.1340091228485107,
                1.6720227003097534,
                1.4982054233551025
            ],
            "min" : [
                -2.3254170417785645,
                -1.6559514999389648,
                -1.494020938873291
            ],
            "type" : "VEC3"
        },
        {
            "bufferView" : 21,
            "componentType" : 5126,
            "count" : 258,
            "type" : "VEC3"
        },
        {
            "bufferView" : 22,
            "componentType" : 5126,
            "count" : 258,
            "type" : "VEC2"
        },
        {
            "bufferView" : 23,
            "componentType" : 5123,
            "count" : 258,
            "type" : "SCALAR"
        }
    ],
    "bufferViews" : [
        {
            "buffer" : 0,
            "byteLength" : 2124,
            "byteOffset" : 0
        },
        {
            "buffer" : 0,
            "byteLength" : 2124,
            "byteOffset" : 2124
        },
        {
            "buffer" : 0,
            "byteLength" : 1416,
            "byteOffset" : 4248
        },
        {
            "buffer" : 0,
            "byteLength" : 354,
            "byteOffset" : 5664
        },
        {
            "buffer" : 0,
            "byteLength" : 1692,
            "byteOffset" : 6020
        },
        {
            "buffer" : 0,
            "byteLength" : 1692,
            "byteOffset" : 7712
        },
        {
            "buffer" : 0,
            "byteLength" : 1128,
            "byteOffset" : 9404
        },
        {
            "buffer" : 0,
            "byteLength" : 282,
            "byteOffset" : 10532
        },
        {
            "buffer" : 0,
            "byteLength" : 1872,
            "byteOffset" : 10816
        },
        {
            "buffer" : 0,
            "byteLength" : 1872,
            "byteOffset" : 12688
        },
        {
            "buffer" : 0,
            "byteLength" : 1248,
            "byteOffset" : 14560
        },
        {
            "buffer" : 0,
            "byteLength" : 312,
            "byteOffset" : 15808
        },
        {
            "buffer" : 0,
            "byteLength" : 576,
            "byteOffset" : 16120
        },
        {
            "buffer" : 0,
            "byteLength" : 576,
            "byteOffset" : 16696
        },
        {
            "buffer" : 0,
            "byteLength" : 384,
            "byteOffset" : 17272
        },
        {
            "buffer" : 0,
            "byteLength" : 96,
            "byteOffset" : 17656
        },
        {
            "buffer" : 0,
            "byteLength" : 1872,
            "byteOffset" : 17752
        },
        {
            "buffer" : 0,
            "byteLength" : 1872,
            "byteOffset" : 19624
        },
        {
            "buffer" : 0,
            "byteLength" : 1248,
            "byteOffset" : 21496
        },
        {
            "buffer" : 0,
            "byteLength" : 312,
            "byteOffset" : 22744
        },
        {
            "buffer" : 0,
            "byteLength" : 3096,
            "byteOffset" : 23056
        },
        {
            "buffer" : 0,
            "byteLength" : 3096,
            "byteOffset" : 26152
        },
        {
            "buffer" : 0,
            "byteLength" : 2064,
            "byteOffset" : 29248
        },
        {
            "buffer" : 0,
            "byteLength" : 516,
            "byteOffset" : 31312
        }
    ],
    "samplers" : [
        {
            "magFilter" : 9729,
            "minFilter" : 9987
        }
    ],
    "buffers" : [
        {
            "byteLength" : 31828,
            "uri" : "Brain_light.bin"
        }
    ]
}
