{
    "asset" : {
        "generator" : "Khronos glTF Blender I/O v1.5.17",
        "version" : "2.0"
    },
    "scene" : 0,
    "scenes" : [
        {
            "name" : "Scene",
            "nodes" : [
                1
            ]
        }
    ],
    "nodes" : [
        {
            "mesh" : 0,
            "name" : "BrainSolid Light A",
            "rotation" : [
                0.7071068286895752,
                0,
                0,
                0.7071067094802856
            ],
            "translation" : [
                0,
                5,
                0
            ]
        },
        {
            "children" : [
                0
            ],
            "name" : "Brain",
            "translation" : [
                0,
                -5,
                0
            ]
        }
    ],
    "materials" : [
        {
            "alphaMode" : "BLEND",
            "emissiveFactor" : [
                1,
                1,
                1
            ],
            "emissiveTexture" : {
                "index" : 0
            },
            "name" : "BrainSolid Light",
            "pbrMetallicRoughness" : {
                "baseColorTexture" : {
                    "index" : 1
                },
                "roughnessFactor" : 0.2500000298023224
            }
        }
    ],
    "meshes" : [
        {
            "name" : "BrainSolid Light A",
            "primitives" : [
                {
                    "attributes" : {
                        "POSITION" : 0,
                        "NORMAL" : 1,
                        "TEXCOORD_0" : 2
                    },
                    "indices" : 3,
                    "material" : 0
                }
            ]
        }
    ],
    "textures" : [
        {
            "sampler" : 0,
            "source" : 0
        },
        {
            "sampler" : 0,
            "source" : 1
        }
    ],
    "images" : [
        {
            "mimeType" : "image/png",
            "name" : "BrainEmission",
            "uri" : "BrainEmission.png"
        },
        {
            "mimeType" : "image/png",
            "name" : "BrainDiffuse",
            "uri" : "BrainDiffuse.png"
        }
    ],
    "accessors" : [
        {
            "bufferView" : 0,
            "componentType" : 5126,
            "count" : 129,
            "max" : [
                1.804237961769104,
                2.945681095123291,
                1.0448249578475952
            ],
            "min" : [
                -0.02156607061624527,
                0.878292441368103,
                -0.2397373616695404
            ],
            "type" : "VEC3"
        },
        {
            "bufferView" : 1,
            "componentType" : 5126,
            "count" : 129,
            "type" : "VEC3"
        },
        {
            "bufferView" : 2,
            "componentType" : 5126,
            "count" : 129,
            "type" : "VEC2"
        },
        {
            "bufferView" : 3,
            "componentType" : 5123,
            "count" : 129,
            "type" : "SCALAR"
        }
    ],
    "bufferViews" : [
        {
            "buffer" : 0,
            "byteLength" : 1548,
            "byteOffset" : 0
        },
        {
            "buffer" : 0,
            "byteLength" : 1548,
            "byteOffset" : 1548
        },
        {
            "buffer" : 0,
            "byteLength" : 1032,
            "byteOffset" : 3096
        },
        {
            "buffer" : 0,
            "byteLength" : 258,
            "byteOffset" : 4128
        }
    ],
    "samplers" : [
        {
            "magFilter" : 9729,
            "minFilter" : 9987
        }
    ],
    "buffers" : [
        {
            "byteLength" : 4388,
            "uri" : "Brain A.bin"
        }
    ]
}
