{
    "asset" : {
        "generator" : "Khronos glTF Blender I/O v1.5.17",
        "version" : "2.0"
    },
    "scene" : 0,
    "scenes" : [
        {
            "name" : "Scene",
            "nodes" : [
                1
            ]
        }
    ],
    "nodes" : [
        {
            "mesh" : 0,
            "name" : "IPoint A",
            "scale" : [
                0.08925812691450119,
                0.08925812691450119,
                0.08925812691450119
            ],
            "translation" : [
                0,
                5.061415672302246,
                0
            ]
        },
        {
            "children" : [
                0
            ],
            "name" : "Brain",
            "translation" : [
                0,
                -5,
                0
            ]
        }
    ],
    "materials" : [
        {
            "alphaMode" : "BLEND",
            "emissiveFactor" : [
                0.680298924446106,
                1,
                0.7581411600112915
            ],
            "name" : "BrainSolid.003",
            "pbrMetallicRoughness" : {
                "metallicFactor" : 0,
                "roughnessFactor" : 0.5
            }
        }
    ],
    "meshes" : [
        {
            "name" : "IPoint A",
            "primitives" : [
                {
                    "attributes" : {
                        "POSITION" : 0,
                        "NORMAL" : 1,
                        "TEXCOORD_0" : 2
                    },
                    "indices" : 3,
                    "material" : 0
                }
            ]
        }
    ],
    "accessors" : [
        {
            "bufferView" : 0,
            "componentType" : 5126,
            "count" : 142,
            "max" : [
                16.468467712402344,
                -3.257164478302002,
                28.04378890991211
            ],
            "min" : [
                14.468466758728027,
                -5.257164478302002,
                26.04378890991211
            ],
            "type" : "VEC3"
        },
        {
            "bufferView" : 1,
            "componentType" : 5126,
            "count" : 142,
            "type" : "VEC3"
        },
        {
            "bufferView" : 2,
            "componentType" : 5126,
            "count" : 142,
            "type" : "VEC2"
        },
        {
            "bufferView" : 3,
            "componentType" : 5123,
            "count" : 144,
            "type" : "SCALAR"
        }
    ],
    "bufferViews" : [
        {
            "buffer" : 0,
            "byteLength" : 1704,
            "byteOffset" : 0
        },
        {
            "buffer" : 0,
            "byteLength" : 1704,
            "byteOffset" : 1704
        },
        {
            "buffer" : 0,
            "byteLength" : 1136,
            "byteOffset" : 3408
        },
        {
            "buffer" : 0,
            "byteLength" : 288,
            "byteOffset" : 4544
        }
    ],
    "buffers" : [
        {
            "byteLength" : 4832,
            "uri" : "IPoint A.bin"
        }
    ]
}
